<svg xmlns="http://www.w3.org/2000/svg" viewBox="0 0 1000 520" font-family='-apple-system,BlinkMacSystemFont,"Pretendard","Inter",sans-serif' role="img" aria-label="경찰 NPC 추론 파이프라인 다이어그램">
<title>경찰 NPC 추론 파이프라인 (PoliceManager.RequestDecision)</title>
<desc>decisionTimer(1초)마다 도둑의 최근 5 step 경로 방향(10)과 팀 ID(1)로 11-dim 관측을 만들어 ONNX 정책에 입력, max_indices [2]를 도둑 현재 좌표 ±10 clamp로 3개 팀을 배치하는 순환 추론 파이프라인.</desc>
<rect x="0" y="0" width="1000" height="520" fill="#0b0d10"/>
<defs>
<marker id="arr" viewBox="0 0 10 10" refX="9" refY="5" markerWidth="7" markerHeight="7" orient="auto-start-reverse"><path d="M0,0 L10,5 L0,10 z" fill="#5a6679"/></marker>
<marker id="arrT" viewBox="0 0 10 10" refX="9" refY="5" markerWidth="7" markerHeight="7" orient="auto-start-reverse"><path d="M0,0 L10,5 L0,10 z" fill="#e0a458"/></marker>
</defs>
<g opacity="0.5">
<line x1="40" y1="0" x2="40" y2="520" stroke="#11151b" stroke-width="1"/>
<line x1="80" y1="0" x2="80" y2="520" stroke="#11151b" stroke-width="1"/>
<line x1="120" y1="0" x2="120" y2="520" stroke="#11151b" stroke-width="1"/>
<line x1="160" y1="0" x2="160" y2="520" stroke="#11151b" stroke-width="1"/>
<line x1="200" y1="0" x2="200" y2="520" stroke="#11151b" stroke-width="1"/>
<line x1="240" y1="0" x2="240" y2="520" stroke="#11151b" stroke-width="1"/>
<line x1="280" y1="0" x2="280" y2="520" stroke="#11151b" stroke-width="1"/>
<line x1="320" y1="0" x2="320" y2="520" stroke="#11151b" stroke-width="1"/>
<line x1="360" y1="0" x2="360" y2="520" stroke="#11151b" stroke-width="1"/>
<line x1="400" y1="0" x2="400" y2="520" stroke="#11151b" stroke-width="1"/>
<line x1="440" y1="0" x2="440" y2="520" stroke="#11151b" stroke-width="1"/>
<line x1="480" y1="0" x2="480" y2="520" stroke="#11151b" stroke-width="1"/>
<line x1="520" y1="0" x2="520" y2="520" stroke="#11151b" stroke-width="1"/>
<line x1="560" y1="0" x2="560" y2="520" stroke="#11151b" stroke-width="1"/>
<line x1="600" y1="0" x2="600" y2="520" stroke="#11151b" stroke-width="1"/>
<line x1="640" y1="0" x2="640" y2="520" stroke="#11151b" stroke-width="1"/>
<line x1="680" y1="0" x2="680" y2="520" stroke="#11151b" stroke-width="1"/>
<line x1="720" y1="0" x2="720" y2="520" stroke="#11151b" stroke-width="1"/>
<line x1="760" y1="0" x2="760" y2="520" stroke="#11151b" stroke-width="1"/>
<line x1="800" y1="0" x2="800" y2="520" stroke="#11151b" stroke-width="1"/>
<line x1="840" y1="0" x2="840" y2="520" stroke="#11151b" stroke-width="1"/>
<line x1="880" y1="0" x2="880" y2="520" stroke="#11151b" stroke-width="1"/>
<line x1="920" y1="0" x2="920" y2="520" stroke="#11151b" stroke-width="1"/>
<line x1="960" y1="0" x2="960" y2="520" stroke="#11151b" stroke-width="1"/>
<line x1="0" y1="40" x2="1000" y2="40" stroke="#11151b" stroke-width="1"/>
<line x1="0" y1="80" x2="1000" y2="80" stroke="#11151b" stroke-width="1"/>
<line x1="0" y1="120" x2="1000" y2="120" stroke="#11151b" stroke-width="1"/>
<line x1="0" y1="160" x2="1000" y2="160" stroke="#11151b" stroke-width="1"/>
<line x1="0" y1="200" x2="1000" y2="200" stroke="#11151b" stroke-width="1"/>
<line x1="0" y1="240" x2="1000" y2="240" stroke="#11151b" stroke-width="1"/>
<line x1="0" y1="280" x2="1000" y2="280" stroke="#11151b" stroke-width="1"/>
<line x1="0" y1="320" x2="1000" y2="320" stroke="#11151b" stroke-width="1"/>
<line x1="0" y1="360" x2="1000" y2="360" stroke="#11151b" stroke-width="1"/>
<line x1="0" y1="400" x2="1000" y2="400" stroke="#11151b" stroke-width="1"/>
<line x1="0" y1="440" x2="1000" y2="440" stroke="#11151b" stroke-width="1"/>
<line x1="0" y1="480" x2="1000" y2="480" stroke="#11151b" stroke-width="1"/>
</g>
<path d="M 193.7 220.4 Q 266.6 154.5 362.4 132.9" fill="none" stroke="#5a6679" stroke-width="1.9" stroke-opacity="0.8" marker-end="url(#arr)"/>
<path d="M 477.8 131.7 Q 586.9 153.8 672.3 221.9" fill="none" stroke="#5a6679" stroke-width="1.9" stroke-opacity="0.8" marker-end="url(#arr)"/>
<path d="M 672.3 298.1 Q 586.9 366.2 477.8 388.3" fill="none" stroke="#5a6679" stroke-width="1.9" stroke-opacity="0.8" marker-end="url(#arr)"/>
<path d="M 362.4 387.1 Q 266.6 365.5 193.7 299.6" fill="none" stroke="#5a6679" stroke-width="1.9" stroke-opacity="0.8" marker-end="url(#arr)"/>
<path d="M 197.0 120.0 Q 285.0 120.0 361.0 120.0" fill="none" stroke="#e0a458" stroke-width="2" stroke-opacity="0.9" stroke-dasharray="5 4" marker-end="url(#arrT)"/>
<rect x="234.6" y="139.0" width="130.8" height="22" rx="11" fill="#0b0d10" stroke="#252c34" stroke-width="1"/>
<text x="300" y="154.0" text-anchor="middle" font-size="12" fill="#a4adb8">최근 5 step 방향</text>
<rect x="548.7" y="139.0" width="102.6" height="22" rx="11" fill="#0b0d10" stroke="#252c34" stroke-width="1"/>
<text x="600" y="154.0" text-anchor="middle" font-size="12" fill="#a4adb8">11-dim 입력</text>
<rect x="520.5" y="359.0" width="159.0" height="22" rx="11" fill="#0b0d10" stroke="#252c34" stroke-width="1"/>
<text x="600" y="374.0" text-anchor="middle" font-size="12" fill="#a4adb8">max_indices [2]</text>
<rect x="141.7" y="349.0" width="196.6" height="22" rx="11" fill="#0b0d10" stroke="#252c34" stroke-width="1"/>
<text x="240" y="364.0" text-anchor="middle" font-size="12" fill="#a4adb8">action+pos−10 clamp</text>
<rect x="197.0" y="84.0" width="206.0" height="22" rx="11" fill="#0b0d10" stroke="#3a3022" stroke-width="1"/>
<text x="300" y="99.0" text-anchor="middle" font-size="12" fill="#e8c79a">1초마다 RequestDecision</text>
<circle cx="150" cy="260" r="54" fill="#14181d" stroke="#252c34" stroke-width="2"/>
<text x="150" y="254.0" text-anchor="middle" font-size="13" font-weight="600" fill="#e6e8eb">도둑 경로</text>
<text x="150" y="273.0" text-anchor="middle" font-size="11" fill="#6c7682">gridPath</text>
<circle cx="420" cy="120" r="54" fill="#14181d" stroke="#252c34" stroke-width="2"/>
<text x="420" y="114.0" text-anchor="middle" font-size="13" font-weight="600" fill="#e6e8eb">관측</text>
<text x="420" y="133.0" text-anchor="middle" font-size="11" fill="#6c7682">11-dim</text>
<circle cx="720" cy="260" r="56" fill="#1b1730" stroke="#7c5cff" stroke-width="2.4"/>
<text x="720" y="254.0" text-anchor="middle" font-size="14" font-weight="700" fill="#7c5cff">정책 π</text>
<text x="720" y="273.0" text-anchor="middle" font-size="12" fill="#6c7682">ONNX</text>
<circle cx="420" cy="400" r="54" fill="#14181d" stroke="#252c34" stroke-width="2"/>
<text x="420" y="394.0" text-anchor="middle" font-size="13" font-weight="600" fill="#e6e8eb">3 팀</text>
<text x="420" y="413.0" text-anchor="middle" font-size="11" fill="#6c7682">배치</text>
<circle cx="150" cy="120" r="42" fill="#1a1610" stroke="#e0a458" stroke-width="2"/>
<text x="150" y="114.0" text-anchor="middle" font-size="12" font-weight="600" fill="#e8c79a">timer</text>
<text x="150" y="133.0" text-anchor="middle" font-size="10" fill="#6c7682">1초</text>
<g transform="translate(48, 492)" font-size="11.5" fill="#6c7682">
<circle cx="8" cy="0" r="5" fill="#7c5cff"/><text x="20" y="4">정책 π (ONNX) = 결정 핵심</text>
<g transform="translate(250,0)"><line x1="0" y1="0" x2="32" y2="0" stroke="#e0a458" stroke-width="2" stroke-dasharray="5 4" marker-end="url(#arrT)"/><text x="42" y="4">decisionTimer 트리거 (1초)</text></g>
<g transform="translate(520,0)"><line x1="0" y1="0" x2="32" y2="0" stroke="#5a6679" stroke-width="1.9" marker-end="url(#arr)"/><text x="42" y="4">추론 데이터 흐름</text></g>
</g>
</svg>